<mxfile host="app.diagrams.net" agent="Mozilla/5.0 (Macintosh; Intel Mac OS X 10.15; rv:131.0) Gecko/20100101 Firefox/131.0" version="24.7.17">
  <diagram id="Ht1M8jgEwFfnCIfOTk4-" name="Page-1">
    <mxGraphModel dx="2204" dy="1474" grid="1" gridSize="10" guides="1" tooltips="1" connect="1" arrows="1" fold="1" page="1" pageScale="1" pageWidth="1169" pageHeight="827" math="0" shadow="0">
      <root>
        <mxCell id="0" />
        <mxCell id="1" parent="0" />
        <mxCell id="_Xv3XyEbwycycCRV387A-2" value="" style="sketch=0;points=[[0,0,0],[0.25,0,0],[0.5,0,0],[0.75,0,0],[1,0,0],[0,1,0],[0.25,1,0],[0.5,1,0],[0.75,1,0],[1,1,0],[0,0.25,0],[0,0.5,0],[0,0.75,0],[1,0.25,0],[1,0.5,0],[1,0.75,0]];outlineConnect=0;fontColor=#232F3E;fillColor=#ED7100;strokeColor=#ffffff;dashed=0;verticalLabelPosition=bottom;verticalAlign=top;align=center;html=1;fontSize=12;fontStyle=0;aspect=fixed;shape=mxgraph.aws4.resourceIcon;resIcon=mxgraph.aws4.ecr;" parent="1" vertex="1">
          <mxGeometry x="-1123" y="-284" width="78" height="78" as="geometry" />
        </mxCell>
        <mxCell id="_Xv3XyEbwycycCRV387A-4" value="VPC" style="points=[[0,0],[0.25,0],[0.5,0],[0.75,0],[1,0],[1,0.25],[1,0.5],[1,0.75],[1,1],[0.75,1],[0.5,1],[0.25,1],[0,1],[0,0.75],[0,0.5],[0,0.25]];outlineConnect=0;gradientColor=none;html=1;whiteSpace=wrap;fontSize=12;fontStyle=0;container=1;pointerEvents=0;collapsible=0;recursiveResize=0;shape=mxgraph.aws4.group;grIcon=mxgraph.aws4.group_vpc2;strokeColor=#8C4FFF;fillColor=none;verticalAlign=top;align=left;spacingLeft=30;fontColor=#AAB7B8;dashed=0;" parent="1" vertex="1">
          <mxGeometry x="-1020" y="-640" width="520" height="650" as="geometry" />
        </mxCell>
        <mxCell id="ot3AHTFzGmXzYolab3Pm-9" style="edgeStyle=orthogonalEdgeStyle;rounded=0;orthogonalLoop=1;jettySize=auto;html=1;" parent="_Xv3XyEbwycycCRV387A-4" source="ot3AHTFzGmXzYolab3Pm-3" target="ot3AHTFzGmXzYolab3Pm-8" edge="1">
          <mxGeometry relative="1" as="geometry" />
        </mxCell>
        <mxCell id="ot3AHTFzGmXzYolab3Pm-3" value="" style="sketch=0;outlineConnect=0;fontColor=#232F3E;gradientColor=none;fillColor=#8C4FFF;strokeColor=none;dashed=0;verticalLabelPosition=bottom;verticalAlign=top;align=center;html=1;fontSize=12;fontStyle=0;aspect=fixed;pointerEvents=1;shape=mxgraph.aws4.endpoints;" parent="_Xv3XyEbwycycCRV387A-4" vertex="1">
          <mxGeometry x="111" y="60" width="78" height="78" as="geometry" />
        </mxCell>
        <mxCell id="ot3AHTFzGmXzYolab3Pm-4" value="&lt;div&gt;vpc link&lt;/div&gt;" style="text;strokeColor=#d79b00;align=center;fillColor=#ffe6cc;html=1;verticalAlign=middle;whiteSpace=wrap;rounded=0;" parent="_Xv3XyEbwycycCRV387A-4" vertex="1">
          <mxGeometry x="120" y="20" width="60" height="30" as="geometry" />
        </mxCell>
        <mxCell id="dmscLP5toCq58QGjrkvy-1" style="edgeStyle=orthogonalEdgeStyle;rounded=0;orthogonalLoop=1;jettySize=auto;html=1;exitX=0;exitY=0.5;exitDx=0;exitDy=0;exitPerimeter=0;entryX=1;entryY=0.5;entryDx=0;entryDy=0;" parent="_Xv3XyEbwycycCRV387A-4" source="ot3AHTFzGmXzYolab3Pm-7" target="ot3AHTFzGmXzYolab3Pm-41" edge="1">
          <mxGeometry relative="1" as="geometry" />
        </mxCell>
        <mxCell id="ot3AHTFzGmXzYolab3Pm-7" value="" style="sketch=0;points=[[0,0,0],[0.25,0,0],[0.5,0,0],[0.75,0,0],[1,0,0],[0,1,0],[0.25,1,0],[0.5,1,0],[0.75,1,0],[1,1,0],[0,0.25,0],[0,0.5,0],[0,0.75,0],[1,0.25,0],[1,0.5,0],[1,0.75,0]];outlineConnect=0;fontColor=#232F3E;fillColor=#ED7100;strokeColor=#ffffff;dashed=0;verticalLabelPosition=bottom;verticalAlign=top;align=center;html=1;fontSize=12;fontStyle=0;aspect=fixed;shape=mxgraph.aws4.resourceIcon;resIcon=mxgraph.aws4.ecs;" parent="_Xv3XyEbwycycCRV387A-4" vertex="1">
          <mxGeometry x="368" y="440" width="78" height="78" as="geometry" />
        </mxCell>
        <mxCell id="ot3AHTFzGmXzYolab3Pm-24" style="edgeStyle=orthogonalEdgeStyle;rounded=0;orthogonalLoop=1;jettySize=auto;html=1;entryX=0.5;entryY=0;entryDx=0;entryDy=0;" parent="_Xv3XyEbwycycCRV387A-4" source="ot3AHTFzGmXzYolab3Pm-8" target="ot3AHTFzGmXzYolab3Pm-18" edge="1">
          <mxGeometry relative="1" as="geometry" />
        </mxCell>
        <mxCell id="ot3AHTFzGmXzYolab3Pm-25" style="edgeStyle=orthogonalEdgeStyle;rounded=0;orthogonalLoop=1;jettySize=auto;html=1;entryX=0.5;entryY=0;entryDx=0;entryDy=0;" parent="_Xv3XyEbwycycCRV387A-4" source="ot3AHTFzGmXzYolab3Pm-8" target="ot3AHTFzGmXzYolab3Pm-19" edge="1">
          <mxGeometry relative="1" as="geometry" />
        </mxCell>
        <mxCell id="ot3AHTFzGmXzYolab3Pm-8" value="" style="sketch=0;outlineConnect=0;fontColor=#232F3E;gradientColor=none;fillColor=#8C4FFF;strokeColor=none;dashed=0;verticalLabelPosition=bottom;verticalAlign=top;align=center;html=1;fontSize=12;fontStyle=0;aspect=fixed;pointerEvents=1;shape=mxgraph.aws4.application_load_balancer;" parent="_Xv3XyEbwycycCRV387A-4" vertex="1">
          <mxGeometry x="359" y="60" width="78" height="78" as="geometry" />
        </mxCell>
        <mxCell id="ot3AHTFzGmXzYolab3Pm-10" value="&lt;div&gt;Application load balancer&lt;/div&gt;" style="text;strokeColor=#d79b00;align=center;fillColor=#ffe6cc;html=1;verticalAlign=middle;whiteSpace=wrap;rounded=0;" parent="_Xv3XyEbwycycCRV387A-4" vertex="1">
          <mxGeometry x="354.5" y="20" width="82.5" height="30" as="geometry" />
        </mxCell>
        <mxCell id="ot3AHTFzGmXzYolab3Pm-19" value="" style="image;aspect=fixed;perimeter=ellipsePerimeter;html=1;align=center;shadow=0;dashed=0;fontColor=#4277BB;labelBackgroundColor=default;fontSize=12;spacingTop=3;image=img/lib/ibm/vpc/LoadBalancerListener.svg;" parent="_Xv3XyEbwycycCRV387A-4" vertex="1">
          <mxGeometry x="446" y="258" width="60" height="60" as="geometry" />
        </mxCell>
        <mxCell id="ot3AHTFzGmXzYolab3Pm-28" value="green&lt;br&gt;listener" style="text;strokeColor=#82b366;align=center;fillColor=#d5e8d4;html=1;verticalAlign=middle;whiteSpace=wrap;rounded=0;" parent="_Xv3XyEbwycycCRV387A-4" vertex="1">
          <mxGeometry x="410" y="328" width="60" height="30" as="geometry" />
        </mxCell>
        <mxCell id="ot3AHTFzGmXzYolab3Pm-27" value="blue&lt;br&gt;listener" style="text;strokeColor=#6c8ebf;align=center;fillColor=#dae8fc;html=1;verticalAlign=middle;whiteSpace=wrap;rounded=0;" parent="_Xv3XyEbwycycCRV387A-4" vertex="1">
          <mxGeometry x="270" y="326" width="60" height="30" as="geometry" />
        </mxCell>
        <mxCell id="ot3AHTFzGmXzYolab3Pm-31" value="ECS" style="text;strokeColor=#d79b00;align=center;fillColor=#ffe6cc;html=1;verticalAlign=middle;whiteSpace=wrap;rounded=0;" parent="_Xv3XyEbwycycCRV387A-4" vertex="1">
          <mxGeometry x="377" y="530" width="60" height="30" as="geometry" />
        </mxCell>
        <mxCell id="ot3AHTFzGmXzYolab3Pm-41" value="" style="rounded=1;arcSize=10;dashed=1;fillColor=none;gradientColor=none;dashPattern=8 3 1 3;strokeWidth=2;" parent="_Xv3XyEbwycycCRV387A-4" vertex="1">
          <mxGeometry x="20" y="170" width="230" height="450" as="geometry" />
        </mxCell>
        <mxCell id="dmscLP5toCq58QGjrkvy-3" style="edgeStyle=orthogonalEdgeStyle;rounded=0;orthogonalLoop=1;jettySize=auto;html=1;exitX=0.5;exitY=1;exitDx=0;exitDy=0;entryX=0.25;entryY=0;entryDx=0;entryDy=0;entryPerimeter=0;" parent="_Xv3XyEbwycycCRV387A-4" source="ot3AHTFzGmXzYolab3Pm-18" target="ot3AHTFzGmXzYolab3Pm-7" edge="1">
          <mxGeometry relative="1" as="geometry" />
        </mxCell>
        <mxCell id="ot3AHTFzGmXzYolab3Pm-18" value="" style="image;aspect=fixed;perimeter=ellipsePerimeter;html=1;align=center;shadow=0;dashed=0;fontColor=#4277BB;labelBackgroundColor=default;fontSize=12;spacingTop=3;image=img/lib/ibm/vpc/LoadBalancerListener.svg;" parent="_Xv3XyEbwycycCRV387A-4" vertex="1">
          <mxGeometry x="308" y="258" width="60" height="60" as="geometry" />
        </mxCell>
        <mxCell id="I5luprlEmF2R9hIj9thK-8" style="edgeStyle=orthogonalEdgeStyle;rounded=0;orthogonalLoop=1;jettySize=auto;html=1;entryX=0.75;entryY=0;entryDx=0;entryDy=0;entryPerimeter=0;" parent="_Xv3XyEbwycycCRV387A-4" source="ot3AHTFzGmXzYolab3Pm-19" target="ot3AHTFzGmXzYolab3Pm-7" edge="1">
          <mxGeometry relative="1" as="geometry" />
        </mxCell>
        <mxCell id="_Xv3XyEbwycycCRV387A-20" value="" style="sketch=0;outlineConnect=0;fontColor=#232F3E;gradientColor=none;fillColor=#8C4FFF;strokeColor=none;dashed=0;verticalLabelPosition=bottom;verticalAlign=top;align=center;html=1;fontSize=12;fontStyle=0;aspect=fixed;pointerEvents=1;shape=mxgraph.aws4.endpoints;direction=east;" parent="_Xv3XyEbwycycCRV387A-4" vertex="1">
          <mxGeometry x="60" y="218" width="60" height="60" as="geometry" />
        </mxCell>
        <mxCell id="_Xv3XyEbwycycCRV387A-19" value="" style="sketch=0;outlineConnect=0;fontColor=#232F3E;gradientColor=none;fillColor=#8C4FFF;strokeColor=none;dashed=0;verticalLabelPosition=bottom;verticalAlign=top;align=center;html=1;fontSize=12;fontStyle=0;aspect=fixed;pointerEvents=1;shape=mxgraph.aws4.endpoints;direction=east;" parent="_Xv3XyEbwycycCRV387A-4" vertex="1">
          <mxGeometry x="60" y="313" width="60" height="60" as="geometry" />
        </mxCell>
        <mxCell id="_Xv3XyEbwycycCRV387A-21" value="" style="sketch=0;outlineConnect=0;fontColor=#232F3E;gradientColor=none;fillColor=#8C4FFF;strokeColor=none;dashed=0;verticalLabelPosition=bottom;verticalAlign=top;align=center;html=1;fontSize=12;fontStyle=0;aspect=fixed;pointerEvents=1;shape=mxgraph.aws4.endpoints;direction=east;" parent="_Xv3XyEbwycycCRV387A-4" vertex="1">
          <mxGeometry x="60" y="418" width="60" height="60" as="geometry" />
        </mxCell>
        <mxCell id="_Xv3XyEbwycycCRV387A-3" value="" style="sketch=0;outlineConnect=0;fontColor=#232F3E;gradientColor=none;fillColor=#8C4FFF;strokeColor=none;dashed=0;verticalLabelPosition=bottom;verticalAlign=top;align=center;html=1;fontSize=12;fontStyle=0;aspect=fixed;pointerEvents=1;shape=mxgraph.aws4.endpoints;direction=east;" parent="_Xv3XyEbwycycCRV387A-4" vertex="1">
          <mxGeometry x="60" y="515" width="60" height="60" as="geometry" />
        </mxCell>
        <mxCell id="_Xv3XyEbwycycCRV387A-38" value="s3" style="text;strokeColor=none;align=center;fillColor=none;html=1;verticalAlign=middle;whiteSpace=wrap;rounded=0;" parent="_Xv3XyEbwycycCRV387A-4" vertex="1">
          <mxGeometry x="60" y="278" width="60" height="30" as="geometry" />
        </mxCell>
        <mxCell id="_Xv3XyEbwycycCRV387A-16" value="ecr.api" style="text;strokeColor=none;align=center;fillColor=none;html=1;verticalAlign=middle;whiteSpace=wrap;rounded=0;" parent="_Xv3XyEbwycycCRV387A-4" vertex="1">
          <mxGeometry x="60" y="374" width="60" height="30" as="geometry" />
        </mxCell>
        <mxCell id="_Xv3XyEbwycycCRV387A-18" value="&lt;div&gt;logs&lt;/div&gt;" style="text;strokeColor=none;align=center;fillColor=none;html=1;verticalAlign=middle;whiteSpace=wrap;rounded=0;" parent="_Xv3XyEbwycycCRV387A-4" vertex="1">
          <mxGeometry x="60" y="478" width="60" height="30" as="geometry" />
        </mxCell>
        <mxCell id="_Xv3XyEbwycycCRV387A-22" style="edgeStyle=orthogonalEdgeStyle;rounded=0;orthogonalLoop=1;jettySize=auto;html=1;exitX=0.5;exitY=1;exitDx=0;exitDy=0;" parent="_Xv3XyEbwycycCRV387A-4" source="_Xv3XyEbwycycCRV387A-18" target="_Xv3XyEbwycycCRV387A-18" edge="1">
          <mxGeometry relative="1" as="geometry" />
        </mxCell>
        <mxCell id="_Xv3XyEbwycycCRV387A-17" value="ecr.dkr" style="text;strokeColor=none;align=center;fillColor=none;html=1;verticalAlign=middle;whiteSpace=wrap;rounded=0;" parent="_Xv3XyEbwycycCRV387A-4" vertex="1">
          <mxGeometry x="60" y="580" width="60" height="30" as="geometry" />
        </mxCell>
        <mxCell id="I5luprlEmF2R9hIj9thK-22" value="" style="sketch=0;outlineConnect=0;fontColor=#232F3E;gradientColor=none;fillColor=#ED7100;strokeColor=none;dashed=0;verticalLabelPosition=bottom;verticalAlign=top;align=center;html=1;fontSize=12;fontStyle=0;aspect=fixed;pointerEvents=1;shape=mxgraph.aws4.ecs_task;" parent="_Xv3XyEbwycycCRV387A-4" vertex="1">
          <mxGeometry x="160" y="365" width="37" height="48" as="geometry" />
        </mxCell>
        <mxCell id="th9PbWhB3uLZUX1Z2eKI-34" value="" style="sketch=0;outlineConnect=0;fontColor=#232F3E;gradientColor=none;fillColor=#ED7100;strokeColor=none;dashed=0;verticalLabelPosition=bottom;verticalAlign=top;align=center;html=1;fontSize=12;fontStyle=0;aspect=fixed;pointerEvents=1;shape=mxgraph.aws4.ecs_task;" vertex="1" parent="_Xv3XyEbwycycCRV387A-4">
          <mxGeometry x="160" y="440" width="37" height="48" as="geometry" />
        </mxCell>
        <mxCell id="th9PbWhB3uLZUX1Z2eKI-35" value="" style="sketch=0;outlineConnect=0;fontColor=#232F3E;gradientColor=none;fillColor=#ED7100;strokeColor=none;dashed=0;verticalLabelPosition=bottom;verticalAlign=top;align=center;html=1;fontSize=12;fontStyle=0;aspect=fixed;pointerEvents=1;shape=mxgraph.aws4.ecs_task;" vertex="1" parent="_Xv3XyEbwycycCRV387A-4">
          <mxGeometry x="160" y="512" width="37" height="48" as="geometry" />
        </mxCell>
        <mxCell id="th9PbWhB3uLZUX1Z2eKI-38" value="&lt;div&gt;Auto-scaled tasks&lt;/div&gt;" style="text;strokeColor=#d79b00;align=center;fillColor=#ffe6cc;html=1;verticalAlign=middle;whiteSpace=wrap;rounded=0;" vertex="1" parent="_Xv3XyEbwycycCRV387A-4">
          <mxGeometry x="142.75" y="218" width="71.5" height="30" as="geometry" />
        </mxCell>
        <mxCell id="th9PbWhB3uLZUX1Z2eKI-37" value="&lt;div&gt;vpc endpoints&lt;/div&gt;" style="text;strokeColor=#d79b00;align=center;fillColor=#ffe6cc;html=1;verticalAlign=middle;whiteSpace=wrap;rounded=0;" vertex="1" parent="_Xv3XyEbwycycCRV387A-4">
          <mxGeometry x="60" y="180" width="60" height="30" as="geometry" />
        </mxCell>
        <mxCell id="th9PbWhB3uLZUX1Z2eKI-42" value="" style="sketch=0;outlineConnect=0;fontColor=#232F3E;gradientColor=none;fillColor=#ED7100;strokeColor=none;dashed=0;verticalLabelPosition=bottom;verticalAlign=top;align=center;html=1;fontSize=12;fontStyle=0;aspect=fixed;pointerEvents=1;shape=mxgraph.aws4.ecs_task;" vertex="1" parent="_Xv3XyEbwycycCRV387A-4">
          <mxGeometry x="160" y="290" width="37" height="48" as="geometry" />
        </mxCell>
        <mxCell id="th9PbWhB3uLZUX1Z2eKI-4" value="" style="rounded=1;arcSize=10;dashed=1;fillColor=none;gradientColor=none;dashPattern=8 3 1 3;strokeWidth=2;" vertex="1" parent="_Xv3XyEbwycycCRV387A-4">
          <mxGeometry x="134.38" y="270" width="88.25" height="310" as="geometry" />
        </mxCell>
        <mxCell id="ot3AHTFzGmXzYolab3Pm-6" style="edgeStyle=orthogonalEdgeStyle;rounded=0;orthogonalLoop=1;jettySize=auto;html=1;" parent="1" source="_Xv3XyEbwycycCRV387A-8" target="ot3AHTFzGmXzYolab3Pm-3" edge="1">
          <mxGeometry relative="1" as="geometry" />
        </mxCell>
        <mxCell id="_Xv3XyEbwycycCRV387A-8" value="" style="sketch=0;points=[[0,0,0],[0.25,0,0],[0.5,0,0],[0.75,0,0],[1,0,0],[0,1,0],[0.25,1,0],[0.5,1,0],[0.75,1,0],[1,1,0],[0,0.25,0],[0,0.5,0],[0,0.75,0],[1,0.25,0],[1,0.5,0],[1,0.75,0]];outlineConnect=0;fontColor=#232F3E;fillColor=#8C4FFF;strokeColor=#ffffff;dashed=0;verticalLabelPosition=bottom;verticalAlign=top;align=center;html=1;fontSize=12;fontStyle=0;aspect=fixed;shape=mxgraph.aws4.resourceIcon;resIcon=mxgraph.aws4.api_gateway;" parent="1" vertex="1">
          <mxGeometry x="-1123" y="-580" width="78" height="78" as="geometry" />
        </mxCell>
        <mxCell id="_Xv3XyEbwycycCRV387A-9" value="&lt;div&gt;API Gateway&lt;/div&gt;" style="text;strokeColor=#d79b00;align=center;fillColor=#ffe6cc;html=1;verticalAlign=middle;whiteSpace=wrap;rounded=0;" parent="1" vertex="1">
          <mxGeometry x="-1127" y="-620" width="86" height="30" as="geometry" />
        </mxCell>
        <mxCell id="I5luprlEmF2R9hIj9thK-2" value="" style="verticalLabelPosition=bottom;html=1;verticalAlign=top;align=center;strokeColor=none;fillColor=#00BEF2;shape=mxgraph.azure.computer;pointerEvents=1;" parent="1" vertex="1">
          <mxGeometry x="-1109" y="-436" width="50" height="45" as="geometry" />
        </mxCell>
        <mxCell id="I5luprlEmF2R9hIj9thK-3" style="edgeStyle=orthogonalEdgeStyle;rounded=0;orthogonalLoop=1;jettySize=auto;html=1;exitX=0.5;exitY=0;exitDx=0;exitDy=0;exitPerimeter=0;" parent="1" source="I5luprlEmF2R9hIj9thK-2" target="_Xv3XyEbwycycCRV387A-8" edge="1">
          <mxGeometry relative="1" as="geometry" />
        </mxCell>
        <mxCell id="I5luprlEmF2R9hIj9thK-4" value="&lt;div&gt;User&lt;/div&gt;" style="text;strokeColor=#82b366;align=center;fillColor=#d5e8d4;html=1;verticalAlign=middle;whiteSpace=wrap;rounded=0;" parent="1" vertex="1">
          <mxGeometry x="-1114" y="-380" width="60" height="30" as="geometry" />
        </mxCell>
        <mxCell id="I5luprlEmF2R9hIj9thK-24" style="edgeStyle=orthogonalEdgeStyle;rounded=0;orthogonalLoop=1;jettySize=auto;html=1;exitX=0;exitY=0.5;exitDx=0;exitDy=0;" parent="1" source="ot3AHTFzGmXzYolab3Pm-41" target="_Xv3XyEbwycycCRV387A-2" edge="1">
          <mxGeometry relative="1" as="geometry" />
        </mxCell>
        <mxCell id="I5luprlEmF2R9hIj9thK-25" value="ECR" style="text;strokeColor=#d79b00;align=center;fillColor=#ffe6cc;html=1;verticalAlign=middle;whiteSpace=wrap;rounded=0;" parent="1" vertex="1">
          <mxGeometry x="-1114" y="-200" width="60" height="30" as="geometry" />
        </mxCell>
      </root>
    </mxGraphModel>
  </diagram>
</mxfile>
